# xmcd
#
# Track frame offsets: 
#        150
#        19242
#        48422
#        65160
#        87305
#        112380
#        127847
#
# Disc length: 1845 seconds
#
# Revision: 1
# Processed by: cddbd v1.5.2PL0 Copyright (c) Steve Scherf et al.
# Submitted via: ExactAudioCopy v0.99pb4
#
DISCID=62073307
DTITLE=Frank Raven Band - Chicago Breakdown
DYEAR=2007
DGENRE=Blues
TTITLE0=Sunday Driver
TTITLE1=Whatever Happened To Yesterday
TTITLE2=Chicago the Blues Today
TTITLE3=Good Old Days
TTITLE4=Chicago Breakdown
TTITLE5=Blues Attack
TTITLE6=Missed Opportunities
EXTD=YEAR: 2007
EXTT0=
EXTT1=
EXTT2=
EXTT3=
EXTT4=
EXTT5=
EXTT6=
PLAYORDER=
